<svg width="52" height="52" viewBox="0 0 52 52" fill="none" xmlns="http://www.w3.org/2000/svg">
<path d="M6.14453 0C2.75651 0 0 2.75651 0 6.14453V44.5859H3.04688C3.04688 42.878 4.43655 41.4883 6.14453 41.4883C7.85251 41.4883 9.24219 42.878 9.24219 44.5859H12.2891V6.14453C12.2891 2.75651 9.53255 0 6.14453 0Z" transform="translate(39.7109)" fill="#487CBF"/>
<path d="M10.4371 1.76871C9.26148 0.628165 7.71905 0 6.09375 0C2.73366 0 0 2.73366 0 6.09375C0 9.45384 2.73366 12.1875 6.09375 12.1875C7.71905 12.1875 9.26148 11.5593 10.4371 10.4188C11.6313 9.26016 12.2891 7.72413 12.2891 6.09375C12.2891 4.46337 11.6313 2.92734 10.4371 1.76871Z" transform="translate(0 39.8125)" fill="#487CBF"/>
<path d="M8.47813 0H2.47559L5.20706e-07 13.2031H7.20342V5.07812H9.43028L8.47813 0Z" transform="translate(17.4763 21.4297)" fill="#487CBF"/>
<path d="M7.10938 0H0V5.07812H7.10938V0Z" transform="translate(27.7266 29.5547)" fill="#487CBF"/>
<path d="M4.58717e-07 0C0.0023364 0.0843984 0.00365625 0.169 0.00365625 0.253906V23.6238L2.09087 12.4922H13.1508L14.6743 20.6172H21.3318V0.253906C21.3318 0.169 21.3331 0.0843984 21.3354 0H4.58717e-07Z" transform="translate(15.3323 5.89062)" fill="#487CBF"/>
<path d="M23.7009 9.95312V0H2.3728V11.4766H1.768C1.36662 12.5127 0.771266 13.4746 1.05381e-07 14.3203H32.8923C35.6626 14.3203 38.0096 12.4772 38.7737 9.95312H23.7009Z" transform="translate(12.9631 37.6797)" fill="#487CBF"/>
<path d="M6.14453 0C2.75651 0 0 2.75651 0 6.14453V39.0995C1.6184 37.6492 3.75466 36.7656 6.09375 36.7656C8.39343 36.7656 10.5786 37.6088 12.2891 39.145V6.14453C12.2891 2.75651 9.53255 0 6.14453 0Z" fill="#487CBF"/>
</svg>
