<svg width="56" height="55" viewBox="0 0 56 55" fill="none" xmlns="http://www.w3.org/2000/svg">
<path d="M3.67649 20.0758C3.97086 21.0772 4.37936 22.0429 4.896 22.9489L3.42418 24.7908C2.94358 25.3928 2.99765 26.2511 3.53832 26.7936L6.07346 29.309C6.62013 29.8514 7.48521 29.899 8.09196 29.4222L9.93624 27.9737C10.8854 28.5162 11.8947 28.9394 12.946 29.2374L13.2223 31.5919C13.3124 32.3549 13.9612 32.9271 14.7302 32.9271H18.3166C19.0856 32.9271 19.7344 32.3548 19.8245 31.5919L20.0888 29.3209C21.2182 29.0288 22.2995 28.5936 23.3148 28.0274L25.099 29.4281C25.7058 29.905 26.5708 29.8514 27.1175 29.3149L29.6526 26.7995C30.1993 26.257 30.2474 25.3987 29.7668 24.7967L28.3791 23.0502C28.9558 22.0606 29.4063 21.0056 29.7067 19.9029L31.8454 19.6585C32.6144 19.5691 33.191 18.9253 33.191 18.1624V14.6038C33.191 13.8408 32.6143 13.1971 31.8454 13.1077L29.7368 12.8633C29.4483 11.7725 29.0159 10.7293 28.4632 9.75176L29.7608 8.12448C30.2414 7.52245 30.1874 6.6641 29.6467 6.12167L27.1176 3.6122C26.5709 3.06978 25.7058 3.02209 25.0991 3.49895L23.5071 4.7507C22.4738 4.14867 21.3684 3.68969 20.209 3.37974L19.9687 1.3352C19.8786 0.57223 19.2298 -6.82148e-10 18.4609 -6.82148e-10H14.8744C14.1055 -6.82148e-10 13.4567 0.57223 13.3665 1.3352L13.1262 3.37974C11.9368 3.69566 10.8014 4.17251 9.74406 4.79839L8.09202 3.49895C7.48527 3.02209 6.62019 3.07574 6.07352 3.6122L3.53838 6.12764C2.9917 6.67006 2.94364 7.52841 3.42424 8.13044L4.80595 9.86502C4.25326 10.8545 3.83274 11.9095 3.5564 13.0063L1.34567 13.2567C0.576714 13.3461 0 13.9898 0 14.7528V18.3114C0 19.0744 0.576714 19.7181 1.34567 19.8075L3.67649 20.0758ZM16.6706 10.4492C19.9386 10.4492 22.5999 13.0898 22.5999 16.3325C22.5999 19.5751 19.9386 22.2157 16.6706 22.2157C13.4026 22.2157 10.7412 19.5751 10.7412 16.3325C10.7412 13.0898 13.4025 10.4492 16.6706 10.4492Z" transform="translate(56) scale(-1 1)" fill="#487CBF"/>
<path d="M23.4157 4.08185L21.5233 2.49629C20.9407 2.00751 20.0815 2.03136 19.5289 2.54994L18.4836 3.52154C17.6006 3.09833 16.6634 2.80029 15.6962 2.62743L15.4019 1.19685C15.2517 0.457723 14.5609 -0.0548997 13.8038 0.00470762L11.3348 0.213333C10.5778 0.278901 9.9831 0.892856 9.95907 1.64987L9.91107 3.10429C8.96183 3.44405 8.06672 3.90899 7.24971 4.49314L6.00023 3.67056C5.36332 3.25331 4.51633 3.37252 4.02378 3.95071L2.4258 5.84027C1.93313 6.41846 1.95716 7.27084 2.47975 7.81923L3.57316 8.97555C3.19463 9.82198 2.9243 10.7102 2.76816 11.6221L1.20623 11.938C0.461309 12.0871 -0.0553306 12.7725 0.00474374 13.5237L0.215004 15.9735C0.281086 16.7246 0.899852 17.3147 1.6628 17.3385L3.35089 17.3921C3.65739 18.1908 4.05982 18.9479 4.54636 19.6572L3.60326 21.0699C3.18274 21.7017 3.30288 22.5422 3.88555 23.031L5.77789 24.6165C6.36067 25.1053 7.21968 25.0815 7.77242 24.5629L9.00995 23.4125C9.82095 23.788 10.674 24.0681 11.551 24.235L11.8935 25.916C12.0437 26.6551 12.7346 27.1677 13.4915 27.1081L15.9606 26.8995C16.7175 26.8339 17.3122 26.22 17.3363 25.4629L17.3903 23.8177C18.2914 23.5018 19.1444 23.0726 19.9314 22.5422L21.2952 23.4363C21.9319 23.8535 22.7789 23.7343 23.2716 23.1561L24.8696 21.2785C25.3621 20.7003 25.3381 19.8479 24.8155 19.2995L23.7161 18.1432C24.1187 17.2968 24.4131 16.4027 24.5812 15.4847L26.083 15.1807C26.8279 15.0317 27.3446 14.3462 27.2845 13.5951L27.0743 11.1452C27.0082 10.3941 26.3894 9.80404 25.6265 9.78019L24.1186 9.73251C23.8061 8.86224 23.3856 8.03972 22.863 7.27668L23.686 6.04877C24.1186 5.41705 23.9984 4.57063 23.4157 4.08185ZM14.1103 18.2445C11.443 18.4711 9.08793 16.498 8.86571 13.8515C8.63737 11.2049 10.6259 8.86826 13.2931 8.64771C15.9604 8.4212 18.3155 10.3943 18.5377 13.0408C18.766 15.6874 16.7774 18.024 14.1103 18.2445Z" transform="translate(27.2892 16.8701) scale(-1 1)" fill="#487CBF"/>
<path d="M1.36388 8.68503C0.606939 8.76252 0.0242183 9.39431 0.0182108 10.1514L0.000188353 11.6594C-0.0118265 12.4165 0.552873 13.0602 1.30981 13.1556L2.42719 13.2986C2.61342 13.9723 2.87775 14.616 3.22017 15.224L2.49928 16.1062C2.01869 16.6963 2.05473 17.5427 2.58939 18.0852L3.65271 19.1641C4.18737 19.7065 5.04043 19.7661 5.64718 19.3012L6.54223 18.6157C7.17301 18.9852 7.83989 19.2774 8.53669 19.48L8.65684 20.6244C8.73494 21.3755 9.37173 21.9537 10.1347 21.9597L11.6546 21.9775C12.4175 21.9895 13.0664 21.4291 13.1625 20.6781L13.3007 19.5932C14.0576 19.4084 14.7785 19.1283 15.4633 18.7587L16.3044 19.4323C16.8991 19.9092 17.7522 19.8734 18.2989 19.3429L19.3862 18.2878C19.9329 17.7574 19.993 16.9109 19.5245 16.3089L18.8816 15.4803C19.2781 14.8246 19.5845 14.1272 19.7948 13.394L20.792 13.2927C21.5489 13.2152 22.1316 12.5834 22.1377 11.8263L22.1556 10.3182C22.1677 9.56126 21.603 8.91744 20.8461 8.82207L19.8728 8.6969C19.6866 7.96969 19.4103 7.26632 19.0498 6.61064L19.6566 5.87151C20.1372 5.2814 20.1011 4.43497 19.5665 3.89254L18.5032 2.81365C17.9685 2.27117 17.1154 2.21156 16.5087 2.67656L15.7817 3.23091C15.0969 2.81961 14.364 2.5037 13.5951 2.28911L13.4989 1.35327C13.4208 0.602162 12.7841 0.0240289 12.0211 0.0180682L10.5012 0.000186677C9.73824 -0.0117348 9.08944 0.548573 8.99326 1.29963L8.87311 2.22956C8.08019 2.43217 7.31725 2.74218 6.60837 3.14745L5.85744 2.53946C5.2627 2.0626 4.40959 2.09842 3.86291 2.62887L2.76956 3.68994C2.22288 4.22039 2.16281 5.06687 2.63139 5.66884L3.27418 6.49149C2.90172 7.14717 2.60736 7.84451 2.41512 8.57774L1.36388 8.68503ZM11.174 6.9802C13.3547 7.00405 15.1028 8.78637 15.0789 10.9501C15.0548 13.1139 13.2585 14.8484 11.0778 14.8246C8.89714 14.8007 7.14904 13.0185 7.17301 10.8547C7.1971 8.691 8.99332 6.95642 11.174 6.9802Z" transform="translate(45.0487 33.0222) scale(-1 1)" fill="#487CBF"/>
</svg>
