<svg class="first" width="52" height="52" viewBox="0 0 52 52" fill="none" xmlns="http://www.w3.org/2000/svg">
<path d="M46.9026 0H5.08729C2.28471 0 0 2.28471 0 5.08729C0 20.0141 0 32.4124 0 47.4712H0.0609256C0.345245 50.0098 2.47764 51.9898 5.08729 51.9898H34.4737C35.4079 51.9898 36.1695 51.2283 36.1695 50.2941C36.1695 49.3599 35.4079 48.5983 34.4737 48.5983H31.6509V35.6009C31.6509 34.6667 30.8893 33.9051 29.9551 33.9051C29.0209 33.9051 28.2593 34.6667 28.2593 35.6009V48.5983H24.8678V42.3839C24.8678 37.7129 21.0701 33.9051 16.389 33.9051H3.39153V28.8178H29.9551C30.8893 28.8178 31.6509 28.0562 31.6509 27.122C31.6509 26.1879 30.8893 25.4263 29.9551 25.4263H3.39153V20.339H6.78305V6.78305H3.39153V5.08729C3.39153 4.1531 4.1531 3.39153 5.08729 3.39153H24.8678V18.6534C24.8678 19.5876 25.6294 20.3492 26.5636 20.3492C27.4978 20.3492 28.2593 19.5876 28.2593 18.6534V3.39153H31.6509V14.5206C31.6509 17.7294 34.2707 20.3492 37.4794 20.3492H46.1715C47.0447 20.3492 47.8672 20.1461 48.6085 19.8008V25.4364H40.1297C39.1955 25.4364 38.4339 26.198 38.4339 27.1322C38.4339 28.0664 39.1955 28.828 40.1297 28.828H48.6085V46.9127C48.6085 47.8469 47.8469 48.6085 46.9127 48.6085H44.6483C43.7141 48.6085 42.9525 49.37 42.9525 50.3042C42.9525 51.2384 43.7141 52 44.6483 52H46.9127C49.7153 52 52 49.7153 52 46.9127V5.08729C51.9898 2.28471 49.7051 0 46.9026 0ZM16.389 40.6881C17.3232 40.6881 18.0848 41.4497 18.0848 42.3839C18.0848 43.3181 17.3232 44.0797 16.389 44.0797C15.4548 44.0797 14.6932 43.3181 14.6932 42.3839C14.6932 41.4497 15.4548 40.6881 16.389 40.6881ZM8.47881 40.6881C9.41301 40.6881 10.1746 41.4497 10.1746 42.3839C10.1746 43.3181 9.41301 44.0797 8.47881 44.0797H3.39153V40.6881H8.47881ZM48.5983 10.1746C43.8563 10.1746 42.9018 10.1746 35.0322 10.1746V6.78305H40.1195V3.39153H43.511V6.78305H48.5983V10.1746Z" fill="#487CBF"/>
</svg>